<?xml version="1.0" standalone="no"?>
<!DOCTYPE svg PUBLIC "-//W3C//DTD SVG 1.0//EN" "http://www.w3.org/TR/2001/REC-SVG-20010904/DTD/svg10.dtd">
<svg xmlns="http://www.w3.org/2000/svg" xmlns:xlink="http://www.w3.org/1999/xlink" id="body_1" width="1024" height="768">

<g transform="matrix(0.23042306 0 0 0.23042306 182.61028 -0)">
    <path d="M2081 0C 2136 473 2400 755 2859 785L2859 785L2859 1317C 2593 1343 2360 1256 2089 1092L2089 1092L2089 2087C 2089 3351 711 3746 157 2840C -199 2257 19 1234 1161 1193L1161 1193L1161 1754C 1074 1768 981 1790 896 1819C 642 1905 498 2066 538 2350C 615 2894 1613 3055 1530 1992L1530 1992L1530 1L2081 1L2081 0z" stroke="none" fill="#000000" fill-rule="nonzero" />
</g>
</svg>